<svg id="svg60" xmlns="http://www.w3.org/2000/svg" viewBox="0 0 212.01 159.01"><g id="g18"><path id="path8" d="M254.46,249.62h33.73V167.71L240,131.57v103.6A14.45,14.45,0,0,0,254.46,249.62Z" transform="translate(-240 -90.62)"/><path id="path10" d="M403.83,249.62h33.73A14.45,14.45,0,0,0,452,235.17V131.57l-48.18,36.14Z" transform="translate(-240 -90.62)"/><path id="path12" d="M403.83,105.07v62.64L452,131.57V112.3A21.68,21.68,0,0,0,417.32,95Z" transform="translate(-240 -90.62)"/><path id="path14" d="M288.19,167.71V105.07L346,148.44l57.82-43.37v62.64L346,211.07Z" transform="translate(-240 -90.62)"/><path id="path16" d="M240,112.3v19.27l48.19,36.14V105.07L274.69,95A21.68,21.68,0,0,0,240,112.3Z" transform="translate(-240 -90.62)"/></g></svg>